<svg width="66" height="66" viewBox="0 0 66 66" fill="none" xmlns="http://www.w3.org/2000/svg">
<path d="M33 52.8C26.125 52.8 20.0475 49.28 16.5 44C16.5825 38.5 27.5 35.475 33 35.475C38.5 35.475 49.4175 38.5 49.5 44C47.6819 46.7071 45.2261 48.9257 42.3488 50.4602C39.4715 51.9948 36.261 52.7983 33 52.8ZM33 13.75C35.188 13.75 37.2865 14.6192 38.8336 16.1664C40.3808 17.7135 41.25 19.812 41.25 22C41.25 24.188 40.3808 26.2865 38.8336 27.8336C37.2865 29.3808 35.188 30.25 33 30.25C30.812 30.25 28.7135 29.3808 27.1664 27.8336C25.6192 26.2865 24.75 24.188 24.75 22C24.75 19.812 25.6192 17.7135 27.1664 16.1664C28.7135 14.6192 30.812 13.75 33 13.75ZM33 5.5C29.3886 5.5 25.8127 6.21131 22.4762 7.59331C19.1398 8.97532 16.1082 11.001 13.5546 13.5546C8.39731 18.7118 5.5 25.7065 5.5 33C5.5 40.2935 8.39731 47.2882 13.5546 52.4454C16.1082 54.999 19.1398 57.0247 22.4762 58.4067C25.8127 59.7887 29.3886 60.5 33 60.5C40.2935 60.5 47.2882 57.6027 52.4454 52.4454C57.6027 47.2882 60.5 40.2935 60.5 33C60.5 17.7925 48.125 5.5 33 5.5Z" fill="#27388E"/>
</svg>
